<?xml version="1.0" encoding="UTF-8" standalone="no"?>
<svg
   version="1.1"
   viewBox="0 0 52.465038 52.465039"
   id="svg18"
   sodipodi:docname="write-1727488.svg"
   width="52.465038"
   height="52.465038"
   inkscape:version="1.1.1 (3bf5ae0d25, 2021-09-20)"
   xmlns:inkscape="http://www.inkscape.org/namespaces/inkscape"
   xmlns:sodipodi="http://sodipodi.sourceforge.net/DTD/sodipodi-0.dtd"
   xmlns="http://www.w3.org/2000/svg"
   xmlns:svg="http://www.w3.org/2000/svg">
  <defs
     id="defs22" />
  <sodipodi:namedview
     id="namedview20"
     pagecolor="#ffffff"
     bordercolor="#666666"
     borderopacity="1.0"
     inkscape:pageshadow="2"
     inkscape:pageopacity="0.0"
     inkscape:pagecheckerboard="true"
     showgrid="true"
     fit-margin-top="0"
     fit-margin-left="0"
     fit-margin-right="0"
     fit-margin-bottom="0"
     inkscape:zoom="5.3"
     inkscape:cx="40.09434"
     inkscape:cy="19.622642"
     inkscape:window-width="1366"
     inkscape:window-height="718"
     inkscape:window-x="1358"
     inkscape:window-y="-8"
     inkscape:window-maximized="1"
     inkscape:current-layer="g14">
    <inkscape:grid
       type="xygrid"
       id="grid446"
       originx="-23.770578"
       originy="-30.464339" />
  </sodipodi:namedview>
  <g
     transform="translate(-23.770578,-982.82434)"
     id="g16">
    <g
       transform="matrix(0.82431,0,0,0.82431,11.917,184.81)"
       id="g14">
      <g
         id="g577"
         transform="translate(0,8.0971182)">
        <rect
           x="14.38"
           y="1013.1"
           width="31.649"
           height="2.4528"
           ry="1.2264"
           fill="#ffffff"
           id="rect4" />
        <rect
           transform="matrix(0.86603,0.5,-0.5,0.86603,0,0)"
           x="541.40002"
           y="804.81"
           width="13.826"
           height="38.279999"
           ry="1.1233"
           fill="#ffffff"
           id="rect6" />
        <path
           d="m 47.249,1014.8 c -0.37998,-0.2194 -0.24398,-1.3056 -0.24398,-1.3056 l 0.21428,-2.0994 0.21435,-2.0995 0.21428,-2.0993 0.21432,-2.0994 0.21428,-2.0994 0.21435,-2.0994 0.21428,-2.0994 1.4967,0.8641 1.4967,0.8641 1.4967,0.8641 1.4967,0.8641 1.4967,0.8641 1.4967,0.8641 1.4967,0.8641 1.4967,0.8641 -1.711,1.2353 -1.711,1.2353 -1.711,1.2353 -1.711,1.2353 -1.711,1.2353 -1.711,1.2353 -1.711,1.2353 c 0,0 -0.87272,0.6609 -1.2527,0.4415 z"
           fill="#ffffff"
           id="path8" />
      </g>
    </g>
  </g>
</svg>
